<svg width="32" height="32" viewBox="0 0 32 32" fill="none" xmlns="http://www.w3.org/2000/svg">
<circle cx="16" cy="16" r="16" fill="#212337"/>
<path d="M23.0939 12.5522C22.615 12.765 22.1096 12.898 21.5775 12.9779C22.1096 12.6586 22.5352 12.1531 22.7215 11.5412C22.216 11.8339 21.6573 12.0467 21.0454 12.1797C20.5665 11.6742 19.8748 11.355 19.1298 11.355C17.6932 11.355 16.5226 12.5256 16.5226 13.9622C16.5226 14.1751 16.5492 14.3613 16.6024 14.5475C14.4474 14.4411 12.5053 13.4035 11.2017 11.8073C10.9888 12.2063 10.8558 12.632 10.8558 13.1109C10.8558 14.0154 11.3081 14.8136 12.0264 15.2925C11.6008 15.2659 11.2017 15.1594 10.8292 14.9732V14.9998C10.8292 16.2768 11.7338 17.341 12.931 17.5805C12.7181 17.6337 12.4787 17.6603 12.2393 17.6603C12.0796 17.6603 11.8934 17.6337 11.7338 17.6071C12.0796 18.6446 13.0374 19.4162 14.1814 19.4162C13.2768 20.1079 12.1594 20.5336 10.9356 20.5336C10.7228 20.5336 10.51 20.5336 10.3237 20.507C11.4943 21.2519 12.8512 21.6776 14.341 21.6776C19.1565 21.6776 21.7903 17.6869 21.7903 14.2283C21.7903 14.1219 21.7903 13.9888 21.7903 13.8824C22.2958 13.5366 22.7481 13.0843 23.0939 12.5522Z" fill="white"/>
</svg>
