<svg width="33" height="32" viewBox="0 0 33 32" fill="none" xmlns="http://www.w3.org/2000/svg">
<circle cx="16.4285" cy="16" r="16" fill="#212337"/>
<path d="M16.4292 9.65381C18.4963 9.65381 18.7411 9.66155 19.5577 9.69879C20.0486 9.7048 20.535 9.79495 20.9955 9.96533C21.3294 10.0941 21.6327 10.2914 21.8858 10.5445C22.1389 10.7976 22.3362 11.1009 22.465 11.4348C22.6353 11.8953 22.7255 12.3816 22.7315 12.8726C22.7684 13.6892 22.7765 13.934 22.7765 16.0011C22.7765 18.0682 22.7687 18.313 22.7315 19.1296C22.7255 19.6205 22.6353 20.1069 22.465 20.5674C22.3362 20.9013 22.1389 21.2046 21.8858 21.4577C21.6327 21.7108 21.3294 21.9081 20.9955 22.0369C20.535 22.2072 20.0486 22.2974 19.5577 22.3034C18.7414 22.3403 18.4967 22.3484 16.4292 22.3484C14.3617 22.3484 14.1169 22.3406 13.3007 22.3034C12.8097 22.2974 12.3234 22.2072 11.8629 22.0369C11.529 21.9081 11.2257 21.7108 10.9726 21.4577C10.7195 21.2046 10.5222 20.9013 10.3934 20.5674C10.223 20.1069 10.1329 19.6205 10.1269 19.1296C10.09 18.313 10.0819 18.0682 10.0819 16.0011C10.0819 13.934 10.0897 13.6892 10.1269 12.8726C10.1329 12.3816 10.223 11.8953 10.3934 11.4348C10.5222 11.1009 10.7195 10.7976 10.9726 10.5445C11.2257 10.2914 11.529 10.0941 11.8629 9.96533C12.3234 9.79495 12.8097 9.7048 13.3007 9.69879C14.1173 9.66192 14.3621 9.65381 16.4292 9.65381ZM16.4292 8.25879C14.3278 8.25879 14.0631 8.26764 13.2373 8.30524C12.5947 8.31802 11.959 8.43969 11.3571 8.66506C10.8408 8.85959 10.3732 9.16443 9.9868 9.55833C9.59255 9.94483 9.28744 10.4127 9.09279 10.9294C8.86741 11.5313 8.74575 12.167 8.73297 12.8096C8.6961 13.6346 8.68726 13.8993 8.68726 16.0007C8.68726 18.1021 8.6961 18.3668 8.73371 19.1926C8.74649 19.8352 8.86815 20.4709 9.09352 21.0728C9.28796 21.5894 9.59281 22.0573 9.9868 22.4439C10.3734 22.8378 10.8413 23.1427 11.3579 23.3371C11.9597 23.5625 12.5955 23.6842 13.238 23.6969C14.0638 23.7338 14.3274 23.7434 16.4299 23.7434C18.5324 23.7434 18.796 23.7345 19.6218 23.6969C20.2644 23.6842 20.9001 23.5625 21.502 23.3371C22.0161 23.1378 22.483 22.8334 22.8728 22.4434C23.2626 22.0534 23.5666 21.5863 23.7656 21.0721C23.991 20.4702 24.1126 19.8344 24.1254 19.1919C24.1623 18.3668 24.1711 18.1021 24.1711 16.0007C24.1711 13.8993 24.1623 13.6346 24.1247 12.8088C24.1119 12.1663 23.9902 11.5305 23.7649 10.9287C23.5704 10.4121 23.2656 9.94416 22.8716 9.55759C22.485 9.16361 22.0171 8.85876 21.5005 8.66432C20.8986 8.43895 20.2629 8.31728 19.6203 8.3045C18.7953 8.26764 18.5306 8.25879 16.4292 8.25879Z" fill="white"/>
<path d="M16.4307 12.0264C15.6444 12.0264 14.8758 12.2595 14.222 12.6964C13.5682 13.1332 13.0586 13.7542 12.7577 14.4806C12.4568 15.2071 12.3781 16.0064 12.5315 16.7776C12.6849 17.5489 13.0635 18.2572 13.6195 18.8133C14.1755 19.3693 14.8839 19.7479 15.6551 19.9013C16.4263 20.0547 17.2257 19.976 17.9522 19.6751C18.6786 19.3742 19.2995 18.8646 19.7364 18.2108C20.1732 17.557 20.4064 16.7883 20.4064 16.002C20.4064 14.9476 19.9876 13.9364 19.242 13.1908C18.4964 12.4452 17.4852 12.0264 16.4307 12.0264ZM16.4307 18.5827C15.9203 18.5827 15.4214 18.4313 14.997 18.1478C14.5726 17.8642 14.2419 17.4612 14.0465 16.9896C13.8512 16.5181 13.8001 15.9992 13.8997 15.4986C13.9993 14.998 14.245 14.5382 14.606 14.1772C14.9669 13.8163 15.4267 13.5706 15.9273 13.471C16.4279 13.3714 16.9468 13.4225 17.4183 13.6178C17.8899 13.8132 18.2929 14.1439 18.5765 14.5683C18.86 14.9927 19.0114 15.4916 19.0114 16.002C19.0114 16.6865 18.7395 17.3429 18.2555 17.8268C17.7716 18.3108 17.1152 18.5827 16.4307 18.5827Z" fill="white"/>
<path d="M20.5628 12.7975C21.0759 12.7975 21.4919 12.3816 21.4919 11.8685C21.4919 11.3554 21.0759 10.9395 20.5628 10.9395C20.0497 10.9395 19.6338 11.3554 19.6338 11.8685C19.6338 12.3816 20.0497 12.7975 20.5628 12.7975Z" fill="white"/>
</svg>
