<svg width="72" height="28" viewBox="0 0 72 28" fill="none" xmlns="http://www.w3.org/2000/svg">
<mask id="mask0_4818_4729" style="mask-type:luminance" maskUnits="userSpaceOnUse" x="0" y="0" width="44" height="26">
<path d="M0 0H44V25.7231H0V0Z" fill="white"/>
</mask>
<g mask="url(#mask0_4818_4729)">
<mask id="mask1_4818_4729" style="mask-type:luminance" maskUnits="userSpaceOnUse" x="-3" y="-3" width="49" height="32">
<path d="M-2.2644 3.67066L41.723 -2.49335L45.7959 22.1493L1.80749 28.3133L-2.2644 3.67066Z" fill="white"/>
</mask>
<g mask="url(#mask1_4818_4729)">
<mask id="mask2_4818_4729" style="mask-type:luminance" maskUnits="userSpaceOnUse" x="-3" y="-3" width="49" height="32">
<path d="M-2.2644 3.67066L41.723 -2.49335L45.7959 22.1493L1.80749 28.3133L-2.2644 3.67066Z" fill="white"/>
</mask>
<g mask="url(#mask2_4818_4729)">
<path d="M31.4755 22.6411C31.4127 22.6642 31.4253 22.6589 31.4156 22.6606C31.4794 22.6348 31.4668 22.642 31.4755 22.6411ZM15.3772 24.3617C15.4544 24.3652 15.4351 24.3644 15.467 24.3679C15.4313 24.3652 15.4033 24.3644 15.3772 24.3617ZM14.2223 25.1922L14.2204 25.194C14.1866 25.1904 14.1509 25.1878 14.1171 25.1824L14.12 25.1789L14.2223 25.1922ZM0.560211 13.2759L0.530278 13.3995L0.52545 13.3968C0.561177 13.2581 0.552486 13.2821 0.560211 13.2759ZM6.70136 23.2991L6.69943 23.3026C6.55942 23.2404 6.58356 23.2484 6.70136 23.2991ZM1.71023 10.5487C1.72182 10.5425 1.71988 10.5505 1.68995 10.5843L1.71023 10.5487ZM16.027 25.4296L16.0261 25.4314L15.8938 25.4225L15.8957 25.4199L16.027 25.4296ZM19.003 25.4056C18.9499 25.4021 18.9711 25.4003 19.029 25.4021L19.003 25.4056ZM20.6454 25.3354L20.601 25.3363C20.6242 25.3336 20.6117 25.3336 20.6464 25.3318C20.6445 25.3336 20.6454 25.3354 20.6454 25.3354ZM27.1506 24.3964L27.1835 24.383L27.2182 24.3804C27.1815 24.3919 27.1989 24.3893 27.1506 24.3964ZM6.98235 23.6441C6.94566 23.6245 6.95338 23.6281 6.9698 23.6325L7.0007 23.6494L6.98235 23.6441ZM14.9069 25.5132V25.5106L15.0122 25.5212V25.5248L14.9069 25.5132ZM14.5796 25.1584L14.5603 25.1575L14.5294 25.1522L14.5584 25.1531L14.5796 25.1584ZM17.0824 25.3976C17.0168 25.3985 16.9974 25.3976 17.039 25.3923L17.0824 25.3976ZM7.9576 23.1826C7.92283 23.1639 7.91994 23.1657 7.96532 23.1773L7.99429 23.1942L7.9576 23.1826ZM7.25754 5.36905C7.2643 5.36816 7.27396 5.36193 7.22278 5.39483L7.21602 5.39572L7.25754 5.36905ZM25.7824 0.882981L25.7833 0.879424L25.8915 0.882092V0.882981H25.7824ZM5.36112 22.0088C5.27326 21.9679 5.30802 21.9857 5.24139 21.9422C5.2974 21.9742 5.32829 21.9928 5.36112 22.0088ZM8.87201 23.9171C8.90291 23.9224 8.88263 23.9144 8.95698 23.942L8.91546 23.9322L8.87201 23.9171ZM5.70391 22.192L5.70584 22.1974L5.61218 22.1493L5.61121 22.1413L5.70391 22.192ZM6.62122 5.74518C6.6077 5.76208 6.59515 5.77186 6.57777 5.77275L6.62122 5.74518ZM3.80363 21.02C3.79011 21.0094 3.79397 21.0147 3.76114 20.9845L3.77852 20.9943L3.80363 21.02ZM13.0578 24.8703C13.1003 24.8819 13.1071 24.8828 13.0501 24.8774C13.0076 24.8659 13.0009 24.8668 13.0578 24.8703ZM11.4067 4.22374L11.4163 4.22552L11.2561 4.29132H11.2474L11.4067 4.22374ZM5.43065 22.7362C5.44223 22.7442 5.45382 22.7522 5.46734 22.7584C5.41037 22.7353 5.39685 22.7247 5.43065 22.7362ZM13.0656 2.5547C13.0588 2.55736 13.0289 2.56803 13.0125 2.57337C13.0134 2.57159 13.0154 2.57159 13.0154 2.57159C13.0318 2.56626 13.0482 2.56092 13.0656 2.5547ZM23.6977 23.9162V23.9126C23.8348 23.8922 23.8348 23.8949 23.6977 23.9162ZM34.856 20.4661C34.8039 20.4999 34.8145 20.4927 34.7836 20.5052C34.8126 20.4901 34.8348 20.4776 34.856 20.4661ZM32.9026 21.4317C32.893 21.4282 32.9094 21.4211 32.948 21.4104L32.9026 21.4317ZM28.2224 23.1061L28.2186 23.1052L28.3547 23.067L28.3624 23.0688L28.2224 23.1061ZM5.30029 21.7705C5.39009 21.8114 5.44803 21.847 5.36981 21.8177C5.33988 21.7981 5.32057 21.7848 5.30029 21.7705ZM1.97673 19.2576C1.94969 19.2327 1.96032 19.2505 1.92749 19.2007C1.95452 19.2256 1.93907 19.2096 1.97673 19.2576ZM17.6666 25.4216L17.6241 25.4261C17.5739 25.4207 17.5797 25.4225 17.6193 25.419L17.6666 25.4216ZM3.57961 20.8404C3.54678 20.8226 3.56223 20.8333 3.52168 20.7968L3.54678 20.8111L3.57961 20.8404ZM30.9483 22.8385L30.8382 22.8785L30.8276 22.8767C30.955 22.8314 30.9299 22.8376 30.9483 22.8385ZM24.475 24.4871L24.4682 24.4853L24.6015 24.4631L24.6092 24.4666L24.475 24.4871ZM22.96 24.7094C23.0324 24.6987 23.0082 24.7005 23.0449 24.7023C22.9716 24.712 22.9938 24.7094 22.96 24.7094ZM0.624906 17.1209L0.621043 17.1253L0.570833 16.9724L0.576626 16.967L0.624906 17.1209ZM20.2978 0.959453L20.2969 0.961232L20.1829 0.975459V0.973681L20.2978 0.959453ZM38.1072 3.34609C38.0686 3.32742 38.0618 3.32742 38.0348 3.31141L38.0782 3.32831C38.0879 3.33453 38.0975 3.33987 38.1072 3.34609ZM25.514 0.414367L25.5246 0.417035L25.399 0.420592L25.3836 0.414367H25.514ZM9.46681 24.1269V24.1287L9.33646 24.0896L9.33742 24.0878L9.46681 24.1269ZM40.329 4.69503C40.3135 4.67635 40.2962 4.66479 40.3647 4.71103C40.3869 4.73593 40.3985 4.74393 40.329 4.69503ZM20.8231 25.3194C20.8627 25.3123 20.8405 25.314 20.9062 25.3131C20.8695 25.3194 20.8897 25.3185 20.8231 25.3194ZM0.481033 18.2324L0.47717 18.2315L0.415373 18.1114L0.424063 18.115L0.481033 18.2324ZM18.385 0.939002L18.4265 0.925663C18.4661 0.922996 18.4661 0.921217 18.4275 0.932777L18.385 0.939002ZM12.8956 24.993C12.8242 24.985 12.8512 24.9895 12.8029 24.9752C12.8435 24.9824 12.8686 24.9886 12.8956 24.993ZM19.6866 25.3887C19.6721 25.3825 19.7059 25.3781 19.7619 25.3834C19.7359 25.3852 19.7108 25.387 19.6866 25.3887ZM39.2736 17.4596C39.2958 17.4312 39.2823 17.4463 39.3248 17.409C39.3016 17.4365 39.3151 17.4232 39.2736 17.4596ZM22.9455 24.0149L22.9464 24.0176L22.8151 24.0345V24.0318L22.9455 24.0149ZM31.7266 21.9546L31.713 21.9564C31.7941 21.9173 31.7517 21.9359 31.8772 21.8897L31.8753 21.895L31.7266 21.9546ZM6.70136 6.46722L6.71488 6.45122L6.87227 6.3534L6.85103 6.37563L6.70136 6.46722ZM31.7468 1.18442L31.685 1.17731L31.6619 1.16753L31.7101 1.17553L31.7468 1.18442ZM8.05609 23.653C8.15458 23.6841 8.1285 23.6752 8.15361 23.6894C8.05029 23.6557 8.0754 23.6628 8.05609 23.653ZM11.5969 25.0037L11.5612 24.9993L11.4907 24.977L11.5283 24.9815L11.5969 25.0037ZM4.80398 21.6861L4.75763 21.6629L4.68038 21.606L4.72963 21.63L4.80398 21.6861ZM15.636 25.5248L15.6292 25.5283L15.4921 25.5168L15.4989 25.5132L15.636 25.5248ZM5.65756 6.39342L5.65563 6.38542L5.75026 6.31872L5.75412 6.32139L5.65756 6.39342ZM17.7381 1.03948L17.8674 1.01458L17.853 1.02525C17.7187 1.04837 17.7496 1.04571 17.7381 1.03948ZM7.0229 5.45886V5.45975L6.87613 5.54867L7.0229 5.45886ZM24.4624 0.806509L24.473 0.800285C24.67 0.801174 24.6623 0.80562 24.4624 0.806509ZM12.8956 25.0446L12.9014 25.0402L13.0704 25.0695L13.0636 25.0722L12.8956 25.0446ZM17.9843 24.8436L18.1542 24.8454L18.1533 24.8481L17.9843 24.8436ZM14.2407 25.3247L14.2417 25.3203L14.4473 25.3416L14.4464 25.346L14.2407 25.3247ZM2.15343 19.857C2.19592 19.8899 2.17178 19.8658 2.24517 19.9477C2.18433 19.8979 2.20654 19.9219 2.15343 19.857ZM19.3429 24.9406L19.3458 24.937L19.4867 24.9317L19.4752 24.9379L19.3429 24.9406ZM22.4221 24.078C22.313 24.0967 22.3565 24.0923 22.2532 24.094C22.3362 24.0869 22.3796 24.0825 22.4221 24.078ZM5.2916 22.4312L5.29353 22.4277L5.48279 22.5317V22.5353L5.2916 22.4312ZM9.93512 23.7766L9.94768 23.7855L9.82118 23.7535L9.81829 23.7472L9.93512 23.7766ZM20.1192 0.768273C19.9782 0.785168 19.901 0.795839 19.8228 0.80562L19.8247 0.802063C19.9019 0.792282 19.9792 0.785168 20.1192 0.768273ZM8.64509 4.91733C8.7262 4.8702 8.704 4.88265 8.74359 4.86575C8.73103 4.87465 8.71751 4.88265 8.69917 4.89688C8.67599 4.90488 8.66151 4.9111 8.64509 4.91733ZM14.4184 25.2305L14.4367 25.2376L14.3131 25.2313L14.289 25.2216L14.4184 25.2305ZM16.281 25.4777L16.2781 25.483C16.2144 25.4803 16.1526 25.4759 16.0888 25.4723L16.0966 25.4661C16.1574 25.4723 16.2192 25.475 16.281 25.4777ZM8.86911 23.492L8.85173 23.4814L8.99754 23.5196L9.02168 23.5338L8.86911 23.492ZM23.5895 25.0339C23.6851 25.017 23.6494 25.0224 23.7266 25.0206C23.6204 25.0375 23.6533 25.0348 23.5895 25.0339ZM15.3096 1.56234C15.3897 1.53922 15.4728 1.51966 15.5549 1.49831L15.5626 1.50187C15.4873 1.52588 15.3782 1.54544 15.3096 1.56234ZM0.628768 12.5539V12.553C0.649045 12.4952 0.66546 12.4347 0.690566 12.3778L0.691531 12.3796C0.66546 12.4365 0.650976 12.4961 0.628768 12.5539ZM0.597869 12.9069C0.594972 12.9638 0.600766 12.9033 0.537037 13.1363L0.532209 13.1158C0.547658 13.0492 0.569867 12.9851 0.597869 12.9069ZM0.316882 17.4543C0.360334 17.5343 0.338126 17.4774 0.410545 17.6926L0.391233 17.6588C0.368059 17.5957 0.34585 17.5343 0.316882 17.4543ZM41.4838 7.59296V7.58318C41.5534 7.68633 41.5225 7.63476 41.5987 7.7797C41.5408 7.68366 41.5118 7.63742 41.4838 7.59296ZM8.42011 4.47095C8.33321 4.52252 8.27431 4.55809 8.16616 4.62122C8.21251 4.57587 8.26176 4.54386 8.42011 4.47095ZM4.97875 7.46847C5.10138 7.36355 5.18152 7.29597 5.22594 7.28974C5.13518 7.35643 5.07724 7.39823 4.97875 7.46847ZM20.405 0.696247C20.3085 0.713142 20.3509 0.706918 20.2389 0.716699C20.3693 0.691801 20.3268 0.696247 20.405 0.696247ZM35.8805 2.30927L35.8776 2.31283C35.8265 2.29238 35.7753 2.27726 35.7251 2.25859L35.7328 2.25414C35.783 2.27282 35.8332 2.28882 35.8805 2.30927ZM12.6426 2.63384C12.4543 2.69075 12.4486 2.69164 12.52 2.64273C12.575 2.63828 12.6069 2.63739 12.6426 2.63384ZM19.1382 24.8819L19.1304 24.8783L19.3429 24.8694L19.3602 24.8748L19.1382 24.8819ZM28.8501 23.4227L28.8568 23.428L28.5758 23.5045L28.572 23.5L28.8501 23.4227ZM18.833 1.32403L18.834 1.32225L19.0947 1.28313L19.0966 1.28579L18.833 1.32403ZM0.258947 13.3666L0.255085 13.3639L0.348747 12.9931L0.350678 12.9958L0.258947 13.3666ZM19.3062 25.3985L19.3081 25.3932C19.3631 25.3923 19.4153 25.3896 19.4674 25.387L19.4597 25.395C19.4085 25.3958 19.3564 25.3976 19.3062 25.3985ZM15.7122 25.4456L15.7113 25.4492L15.578 25.4403L15.5877 25.4359L15.7122 25.4456ZM13.81 25.1744L13.8081 25.17L14.0196 25.1967L14.0215 25.2011L13.81 25.1744ZM0.83637 18.5071C0.736914 18.3631 0.747536 18.3586 0.695394 18.2368C0.738845 18.3177 0.77071 18.4031 0.83637 18.5071ZM6.2176 23.1453C6.19636 23.1337 6.17512 23.1221 6.1558 23.1097C6.17029 23.1159 6.18863 23.1212 6.23498 23.1372C6.27168 23.163 6.27843 23.1621 6.2176 23.1453ZM38.0396 19.1998L38.0444 19.1989L37.8185 19.3697L37.8098 19.3706L38.0396 19.1998ZM0.627802 12.8366C0.586282 12.9247 0.676082 12.6686 0.696359 12.6046C0.675116 12.7201 0.653873 12.7815 0.627802 12.8366ZM0.418269 16.5713L0.41151 16.558L0.385439 16.421L0.397026 16.4442L0.418269 16.5713ZM25.6038 24.7094L25.5188 24.7138C25.54 24.7085 25.5622 24.7023 25.6028 24.6916C25.6713 24.6934 25.6655 24.6898 25.6038 24.7094ZM21.248 24.2256L21.2422 24.2328L20.9158 24.2514L20.9226 24.2434L21.248 24.2256ZM42.4562 12.2702C42.4716 12.2355 42.4378 12.4454 42.4089 12.4463C42.4205 12.3796 42.434 12.3147 42.4562 12.2702ZM28.991 0.47928C29.1339 0.483726 29.1339 0.483726 29.3222 0.510402C29.1957 0.499731 29.1156 0.490839 28.991 0.47928ZM11.5042 24.9006L11.5129 24.9112L11.1875 24.8499L11.1769 24.8401C11.286 24.8623 11.3941 24.881 11.5042 24.9006ZM20.0149 25.3683C20.1501 25.3576 20.0941 25.3594 20.2341 25.3638C20.0835 25.3763 20.1375 25.3772 20.0149 25.3683ZM1.74306 10.7345C1.66774 10.8741 1.66967 10.875 1.5905 10.9924C1.63008 10.9239 1.66967 10.8546 1.74306 10.7345ZM0.308192 13.2475C0.294674 13.3666 0.275362 13.4422 0.248326 13.5213L0.240601 13.5196C0.257982 13.444 0.277293 13.3711 0.308192 13.2475ZM42.3249 9.35627C42.2843 9.26023 42.2505 9.15531 42.2196 9.05038L42.2293 9.04415L42.3249 9.35627ZM17.0032 25.4101C16.9028 25.4207 16.9028 25.4207 16.7261 25.4021C16.8256 25.4047 16.9076 25.4074 17.0032 25.4101ZM9.69469 24.4933C9.77001 24.4977 9.77001 24.4977 9.99596 24.5671C9.86946 24.5351 9.79125 24.5173 9.69469 24.4933ZM14.7177 25.3674C14.7727 25.3665 14.6868 25.3612 15.0846 25.3967C14.8654 25.387 14.8654 25.387 14.7177 25.3674ZM20.8154 0.647341C20.8077 0.646451 20.8347 0.635781 20.8415 0.634892C20.996 0.617997 20.994 0.62511 21.0626 0.62511C20.9815 0.633113 20.9419 0.638449 20.8154 0.647341ZM1.18109 11.7109C1.1386 11.8025 1.10577 11.8843 1.0517 11.9777C1.08742 11.8852 1.13763 11.7989 1.18109 11.7109ZM23.184 24.6516C23.042 24.6818 23.042 24.6818 22.848 24.6987L23.184 24.6516ZM4.50754 7.57162L4.51816 7.56984C4.38491 7.68811 4.43705 7.64365 4.31925 7.73613L4.32215 7.72634L4.50754 7.57162ZM9.95926 4.84086C9.83181 4.91199 9.83181 4.91199 9.56047 5.02848C9.68214 4.97157 9.80477 4.91377 9.95926 4.84086ZM22.1151 24.1732C22.0977 24.1838 22.1344 24.1803 21.949 24.1945L21.9664 24.1847L22.1151 24.1732ZM12.1714 25.0375C12.2651 25.0428 12.2651 25.0428 12.4495 25.0846C12.3607 25.0695 12.2709 25.0544 12.1714 25.0375ZM41.9647 13.7427C41.9367 13.8726 41.8546 13.9891 41.7899 14.1073C41.8469 13.9855 41.9184 13.869 41.9647 13.7427ZM5.15063 6.70553C5.07048 6.77311 4.98937 6.84603 4.88412 6.90916C4.97296 6.84158 5.05986 6.77044 5.15063 6.70553ZM17.5488 25.5159L17.5478 25.5203L17.1983 25.515L17.2022 25.5114L17.5488 25.5159ZM4.89861 7.27285C5.05503 7.14302 5.16994 7.04165 5.32829 6.91805C5.20663 7.03009 5.07338 7.13769 4.89861 7.27285ZM42.5894 11.1409C42.5856 11.1089 42.5807 11.0644 42.574 11.0129C42.5807 10.9613 42.5865 10.9124 42.5943 10.8528C42.5991 10.9568 42.6126 11.0716 42.5894 11.1409ZM21.3252 0.581539C21.5415 0.553084 21.5792 0.553973 21.5463 0.593099C21.4604 0.588653 21.3947 0.586874 21.3252 0.581539ZM22.5081 25.1887C22.5621 25.1549 22.5863 25.1566 22.8547 25.1335C22.7118 25.1584 22.6162 25.1735 22.5081 25.1887ZM31.9187 21.8319C31.7777 21.9101 31.6252 21.9439 31.4967 21.9973C31.6242 21.9395 31.7565 21.8906 31.9187 21.8319ZM20.7439 25.5532C20.6599 25.5719 20.687 25.579 20.2042 25.5986L20.2022 25.5888C20.3789 25.5817 20.5556 25.5701 20.7439 25.5532ZM12.239 24.9397C12.0391 24.9166 12.0401 24.9148 11.8682 24.8739C12.0247 24.8943 12.0227 24.8961 12.239 24.9397ZM0.749467 11.9021L0.744639 11.895C0.833473 11.6887 0.950309 11.4948 1.05073 11.2939C0.959965 11.5117 0.838301 11.6967 0.749467 11.9021ZM13.2423 25.2002C13.4634 25.218 13.6835 25.2482 13.9056 25.282L13.9008 25.2891L13.2423 25.2002ZM12.4495 25.1469C12.4167 25.1504 12.408 25.1558 12.38 25.1522C12.2361 25.1353 12.1029 25.1104 11.986 25.0766L11.9938 25.0704C12.1318 25.098 12.2709 25.1193 12.4495 25.1469ZM16.2201 25.3896C16.2134 25.3674 16.4007 25.3754 16.477 25.3683C16.616 25.3825 16.588 25.3914 16.5388 25.403C16.4268 25.3976 16.3283 25.3932 16.2201 25.3896ZM21.7037 0.531743C21.9393 0.513959 22.0678 0.514848 22.144 0.531743C21.948 0.537968 21.7472 0.554863 21.7037 0.531743ZM10.2924 24.5547C9.99885 24.4995 10.1601 24.5395 9.70049 24.4142C9.85112 24.4311 10.1533 24.5102 10.2924 24.5547ZM38.2935 3.39144C38.5311 3.50971 38.8198 3.65732 39.0515 3.82627C38.8178 3.67421 38.5678 3.54439 38.2935 3.39144ZM0.360334 18.0581L0.369024 18.0563C0.443375 18.1995 0.515794 18.3408 0.593041 18.4876C0.676082 18.6307 0.769744 18.7739 0.866303 18.9286C0.811264 18.8619 0.696359 18.6876 0.589179 18.5089C0.495517 18.324 0.401854 18.1372 0.360334 18.0581ZM7.49025 23.8593C7.56074 23.8949 7.62929 23.9331 7.70847 23.9704C7.50666 23.894 7.29713 23.8077 7.07987 23.7206C7.23244 23.7615 7.23244 23.7615 7.49025 23.8593ZM1.84348 19.8534C1.9439 19.9637 2.1515 20.1682 2.44794 20.4847C2.34559 20.3843 2.23937 20.282 2.13509 20.1815C2.08198 20.1299 2.03177 20.0784 1.97963 20.0268C1.93135 19.9699 1.88693 19.9121 1.84348 19.8534ZM40.6322 4.92355C40.7558 5.02226 40.6167 4.8951 41.2424 5.47309L41.2222 5.46775C41.0368 5.28902 40.8108 5.11118 40.6322 4.92355ZM10.0278 24.6658C9.65703 24.5662 9.29107 24.4871 8.92319 24.3599C9.29011 24.4791 9.65221 24.5466 10.0278 24.6658ZM9.2119 24.3599C8.41915 24.1278 8.63061 24.1981 8.40949 24.1012C8.71655 24.2034 8.96857 24.263 9.2119 24.3599ZM6.68881 23.3542C6.73709 23.356 6.71198 23.3258 6.936 23.4227C6.94566 23.4414 7.01132 23.4769 7.16195 23.5525C6.97462 23.4823 6.84041 23.4236 6.68881 23.3542ZM39.4165 4.05924C39.4812 4.09036 39.8868 4.34201 40.1484 4.55631L40.1339 4.55364C39.8983 4.3838 39.6589 4.22019 39.4165 4.05924ZM42.546 11.5064L42.5556 11.4788C42.5624 11.5197 42.5711 11.5588 42.5769 11.5971C42.5556 11.8096 42.5064 11.999 42.4765 12.1884H42.4658C42.4745 12.079 42.4919 11.9634 42.5112 11.8478C42.5209 11.79 42.5334 11.734 42.5412 11.6762C42.5441 11.6193 42.547 11.5624 42.546 11.5064ZM8.20865 24.0985C8.47805 24.2194 8.83435 24.2914 9.15396 24.4133C8.83435 24.3243 8.75131 24.2906 8.62868 24.2719C8.58137 24.271 8.1623 24.1358 8.01456 24.0487C8.08409 24.0665 8.14299 24.0825 8.20865 24.0985ZM36.1026 2.39909C36.4396 2.53069 36.4164 2.47111 37.9527 3.20026C37.831 3.15491 37.7441 3.11668 37.5056 2.99841C37.3868 2.93795 37.2227 2.87037 36.9987 2.76989C36.8857 2.72098 36.7592 2.66496 36.6115 2.60005C36.4608 2.54047 36.2938 2.47378 36.1026 2.39909ZM42.0516 8.5791C41.956 8.42437 41.8411 8.14249 41.7368 8.03935C41.7098 7.96287 41.6934 7.91841 41.6741 7.86595C41.6412 7.81082 41.5978 7.74146 41.5476 7.65876C41.6548 7.8286 41.7484 7.96199 41.8141 8.0758C41.8759 8.1914 41.9213 8.27765 41.9579 8.34701C42.0294 8.48395 42.0564 8.54086 42.0516 8.5791ZM16.0608 25.3781C15.9189 25.3781 15.7837 25.3683 15.6669 25.3541C15.4931 25.3318 15.3019 25.3229 15.1213 25.3131C14.9417 25.298 14.7727 25.2847 14.6404 25.258L14.6482 25.25C15.0209 25.29 15.2507 25.306 15.3946 25.3096C15.5404 25.3167 15.5993 25.3167 15.636 25.3167C15.7103 25.3176 15.69 25.3203 16.0608 25.3781ZM1.57601 19.2194C1.55091 19.1758 1.52097 19.1216 1.49104 19.0682C1.40993 18.9588 1.32303 18.8486 1.25157 18.7259C1.26219 18.7259 1.30082 18.7757 1.35199 18.8504C1.40896 18.9215 1.48235 19.0158 1.55477 19.1136C1.62912 19.2114 1.70057 19.3145 1.7643 19.3928C1.82803 19.4701 1.87631 19.5279 1.89369 19.5484C2.07908 19.7787 2.02115 19.7076 1.91493 19.6373C1.81065 19.4862 1.68705 19.3741 1.57601 19.2194ZM15.8716 24.3821C15.7238 24.3777 15.7238 24.3777 15.6591 24.3608C15.4129 24.3386 15.1725 24.3172 14.9166 24.295C14.8471 24.2888 14.6771 24.2612 14.6047 24.2568C14.2552 24.2425 13.8911 24.1776 13.5368 24.1376C12.3703 23.9784 12.2496 23.9615 12.1 23.9455C11.9522 23.9224 11.7668 23.9206 10.5232 23.6121C10.0017 23.4671 9.99885 23.5027 9.60489 23.3925C9.2988 23.3018 9.08154 23.2368 8.91739 23.1888C8.7571 23.1319 8.65089 23.0955 8.56688 23.067C8.39887 23.0083 8.31776 22.9825 8.06767 22.9016C8.34962 23.0074 8.59875 23.0919 8.81311 23.1666C9.03133 23.2404 9.22155 23.2911 9.3886 23.3418C9.71883 23.444 9.96892 23.5027 10.2026 23.5747C10.1524 23.5685 9.97085 23.5249 9.72945 23.4618C9.48709 23.3907 9.18583 23.2991 8.88746 23.2111C8.59488 23.1115 8.30714 23.0145 8.08795 22.9407C7.87262 22.8616 7.72585 22.8127 7.7133 22.8189C7.52984 22.7496 7.40817 22.7024 7.32031 22.6695C7.23533 22.6331 7.18802 22.6126 7.15036 22.5966C7.07794 22.5628 7.0567 22.5504 6.90221 22.4766L6.90993 22.4801C6.77282 22.4303 6.66757 22.3725 6.5459 22.3103C6.56521 22.3272 6.5797 22.3396 6.59611 22.3547C6.33347 22.2356 6.06504 22.096 5.8024 21.9751C5.96365 22.0764 6.65501 22.4179 7.36859 22.706C8.08602 22.9914 8.82083 23.2217 8.98498 23.2715C8.95795 23.2591 8.93574 23.2475 8.90677 23.2351C9.34804 23.356 9.08058 23.2946 9.41467 23.3978C9.63676 23.4671 9.79704 23.5116 9.9274 23.5436C10.0549 23.5756 10.1466 23.5996 10.2354 23.6228C10.3986 23.6699 10.5386 23.7099 10.893 23.8113C10.7037 23.7748 8.5244 23.2955 6.56328 22.3805C5.58224 21.9333 4.66686 21.3855 4.01702 20.916C3.69934 20.6724 3.42512 20.4705 3.24552 20.3051C3.06109 20.1442 2.93942 20.0464 2.91818 20.0241C3.0804 20.1877 3.25614 20.3309 3.41256 20.4981C3.23876 20.3478 2.9037 20.0873 2.62464 19.8009C2.47594 19.6649 2.34848 19.5182 2.24034 19.3963C2.13605 19.2727 2.04432 19.1758 2.0057 19.11C1.9719 19.0567 1.84927 18.9099 1.80872 18.8459C1.76527 18.781 1.72085 18.7197 1.67836 18.6601C1.63781 18.5978 1.60015 18.5383 1.5596 18.4769C1.48235 18.3569 1.39448 18.2413 1.3182 18.1088C1.44276 18.372 1.49973 18.4538 1.54801 18.5294C1.59725 18.6049 1.63781 18.6699 1.78554 18.877C1.71988 18.8059 1.65519 18.7357 1.60208 18.6574C1.54898 18.5783 1.49683 18.4982 1.43793 18.4084C1.47366 18.4644 1.45724 18.436 1.49683 18.5107C1.4669 18.4769 1.44855 18.4369 1.44276 18.4138C1.46111 18.4707 1.52001 18.5854 1.59725 18.6903C1.72664 18.8468 1.81837 18.9962 1.94583 19.1554C1.90142 19.1198 1.77299 18.9686 1.61174 18.7694C1.53159 18.6672 1.45918 18.5471 1.37807 18.4262C1.29696 18.3053 1.21585 18.1781 1.15598 18.0492C1.24192 18.2484 1.33268 18.3666 1.39641 18.4751C1.46497 18.5818 1.51228 18.677 1.57987 18.7961C1.44373 18.6361 1.38193 18.5338 1.28633 18.3942C1.18495 18.2546 1.09129 18.0634 0.896236 17.7202C0.533175 16.9359 0.670288 17.1813 0.536071 16.7918L0.514828 16.7936C0.429856 16.5553 0.41151 16.4228 0.37868 16.3206C0.349712 16.2165 0.320745 16.1401 0.268603 16.0022C0.272465 16.068 0.275362 16.1321 0.28019 16.1996C0.311089 16.3446 0.33716 16.4619 0.356472 16.5562C0.376749 16.6496 0.403785 16.7189 0.417304 16.775C0.447237 16.8834 0.454962 16.9288 0.458824 16.9652C0.463652 17.0017 0.462686 17.0284 0.47717 17.0951C0.488757 17.1644 0.529312 17.272 0.609456 17.4721C0.603662 17.5334 0.601731 17.5343 0.675116 17.7611C0.610422 17.6375 0.527381 17.3787 0.470411 17.3334C0.579523 17.6099 0.817058 18.195 1.18495 18.7223C1.26702 18.861 1.36551 18.9891 1.46111 19.1109C1.5567 19.2345 1.64264 19.3581 1.74016 19.463C1.93328 19.672 2.09164 19.8578 2.22006 19.9619C2.77624 20.5061 2.79072 20.475 2.89694 20.5897C2.63237 20.4216 2.39483 20.1193 2.26834 20.0428C2.21137 20.0081 2.02308 19.8329 1.56249 19.2674V19.2807C1.58277 19.3048 1.62333 19.3572 1.67257 19.4212C1.72761 19.4826 1.79327 19.5573 1.86183 19.6338C1.99604 19.7858 2.12929 19.9441 2.19013 20.0081C1.99122 19.8205 1.83962 19.6142 1.68126 19.4559C1.80968 19.6053 1.94004 19.7547 2.06363 19.8987C2.19013 20.0384 2.33786 20.1548 2.46822 20.3078C2.38035 20.2358 2.306 20.1753 2.23358 20.1184C2.16888 20.0704 2.01149 19.8996 2.02405 19.9441C2.06943 20.001 2.12254 20.0561 2.18144 20.121C2.14668 20.0917 2.12736 20.0748 2.10515 20.057C2.24903 20.2046 2.36683 20.3238 2.46242 20.4198C2.55898 20.5176 2.64202 20.5852 2.70575 20.6439C2.83707 20.7559 2.90466 20.8137 2.96453 20.8671C3.02343 20.9178 3.0775 20.9587 3.18179 21.0378C3.28607 21.1152 3.43284 21.2397 3.69838 21.4317C3.75149 21.4691 3.76404 21.4993 3.83066 21.534C3.96102 21.6007 4.14255 21.7412 4.34339 21.8648C4.5423 21.9919 4.74218 22.1218 4.88509 22.1965C5.1738 22.3725 5.12842 22.353 5.33698 22.4668C5.38816 22.4935 5.45382 22.5308 5.54652 22.5815C5.64211 22.6277 5.76281 22.6864 5.91827 22.7611C6.0747 22.834 6.26105 22.9327 6.50438 23.0323C6.74385 23.1355 7.02677 23.2653 7.37631 23.3933C7.42942 23.4262 7.4719 23.4511 7.51439 23.476C7.30293 23.4067 7.10112 23.3338 6.94952 23.2617C6.80372 23.1897 6.68784 23.1319 6.65501 23.1159C6.3132 22.9719 5.65466 22.6526 5.59769 22.6348C5.39685 22.5344 5.2018 22.425 5.00386 22.3201L5.00192 22.3121C5.1989 22.409 5.39589 22.5281 5.59769 22.6366C5.22111 22.417 5.10911 22.3672 4.88026 22.2107C4.85612 22.2151 4.82619 22.2054 4.6997 22.128C3.39711 21.3224 3.37973 21.2468 3.30925 21.1792C3.30249 21.1721 3.22234 21.1125 3.17406 21.0743C3.18179 21.0876 3.18468 21.0983 3.18951 21.1063C3.11516 21.0503 3.0553 21.004 3.00315 20.9649C2.95584 20.9231 2.91722 20.8893 2.88245 20.8618C2.81679 20.8049 2.77817 20.7702 2.73955 20.7373C2.69996 20.7026 2.66327 20.6688 2.6034 20.6146C2.5416 20.5603 2.45856 20.4847 2.33979 20.3576C2.38904 20.4011 2.43925 20.4492 2.48656 20.4954C2.53774 20.5399 2.58892 20.5825 2.63623 20.6261C2.73472 20.7106 2.82548 20.7897 2.90756 20.844C2.69223 20.6306 2.10515 20.1913 1.56829 19.4844C1.40124 19.2372 1.15405 18.9944 1.00342 18.6556C1.00342 18.6556 1.00535 18.6796 0.972518 18.6503C0.946447 18.6192 0.8692 18.5427 0.753329 18.3186C0.655805 18.1257 0.577592 18.0029 0.508069 17.8793C0.445306 17.754 0.396061 17.6259 0.343919 17.4347L0.344884 17.441C0.28019 17.3191 0.285018 17.3689 0.273431 17.3832C0.245429 17.4232 0.28888 17.4863 0.463652 17.9096C0.522553 18.0305 0.605594 18.2021 0.678979 18.3515C0.742707 18.5009 0.818989 18.6129 0.816092 18.637C0.776503 18.58 0.736914 18.5222 0.69829 18.4636C0.705049 18.4965 0.709878 18.5231 0.712774 18.5436C0.790987 18.6779 0.905892 18.829 0.933894 18.9153C0.855682 18.8157 0.75526 18.6307 0.702153 18.5836C0.748501 18.6948 0.909755 18.9206 0.959965 19.0407C0.939688 19.0131 0.876925 18.9108 0.792918 18.7712C0.749467 18.701 0.701187 18.6227 0.650011 18.5383C0.601732 18.4547 0.559245 18.3604 0.512897 18.2688C0.315917 17.9078 0.184597 17.5228 0.149835 17.4712C0.164319 17.5406 0.178803 17.6081 0.196184 17.6891C0.493585 18.4191 0.63939 18.6281 0.762019 18.8201C0.883684 19.0131 1.00342 19.1865 1.4669 19.7325C1.59146 19.8676 1.7083 20.0223 1.83479 20.1486C1.83865 20.1513 1.84927 20.1637 1.85314 20.1682C1.96901 20.3149 2.09646 20.418 2.22296 20.5336C2.40352 20.7053 2.56671 20.8484 2.76852 21.0316C3.01474 21.2388 3.50043 21.6069 3.94557 21.8968C4.16283 22.0462 4.37912 22.1627 4.52975 22.2578C4.60603 22.3032 4.66783 22.3414 4.71128 22.3681C4.75377 22.3939 4.7808 22.4045 4.7808 22.4045C4.76536 22.3992 4.74508 22.3903 4.67942 22.3574C4.95268 22.5148 5.0811 22.5806 5.20663 22.65C5.33216 22.7175 5.46058 22.7833 5.75412 22.9096C5.75412 22.9096 5.78405 22.9363 6.038 23.0688C6.16353 23.1381 6.35182 23.2182 6.61929 23.3364C6.88386 23.4609 7.2392 23.5934 7.69978 23.7686L7.70654 23.7633C7.58488 23.7126 7.46708 23.6628 7.31355 23.597C7.70075 23.7223 8.05126 23.8664 8.4037 23.9891C8.39501 23.9936 8.38921 23.998 8.37956 24.0025C8.89904 24.1927 8.39597 23.9562 9.24279 24.2665C9.16265 24.2505 9.11244 24.2416 9.06513 24.2319C9.13175 24.2674 9.35287 24.3386 9.26307 24.3368C8.91739 24.2319 8.56592 24.1358 8.2212 24.0149L7.70075 23.8379L7.18802 23.6423C7.17643 23.629 7.16774 23.6192 7.15519 23.6032C6.83751 23.4965 6.74095 23.4485 6.66274 23.4209C6.58839 23.396 6.52563 23.3738 6.29388 23.292C7.70268 23.9233 8.10823 23.9375 8.3139 24.094C7.93539 23.95 7.68144 23.902 7.37245 23.7713C7.34445 23.7748 7.34058 23.7739 7.21892 23.7286C7.16291 23.6939 7.16195 23.677 6.97559 23.5996C6.68978 23.5303 6.78151 23.5623 6.02738 23.2244L6.03607 23.2279C5.8024 23.1319 5.58611 23.0225 5.27808 22.8749C5.44706 22.9736 5.62666 23.0554 5.8024 23.1417C5.97717 23.2297 6.15001 23.3142 6.32189 23.3942C6.19153 23.3391 6.05925 23.2849 5.94337 23.2271C5.96751 23.2493 5.99069 23.2689 6.01483 23.2929C6.1925 23.3738 6.37596 23.4485 6.56328 23.5303C6.53818 23.5143 6.5208 23.5018 6.49666 23.4858C6.8211 23.621 6.82689 23.6281 6.92055 23.6939C6.78054 23.645 6.58549 23.5578 6.36437 23.4627C6.25333 23.4156 6.13456 23.3658 6.01869 23.3115C5.90185 23.2555 5.78405 23.1977 5.66722 23.1417C5.55135 23.0848 5.43837 23.0297 5.33119 22.979C5.22594 22.923 5.12938 22.8705 5.04248 22.8242C4.86771 22.7309 4.73735 22.6642 4.68425 22.6411C4.74122 22.6749 4.85709 22.7407 5.00482 22.8278C5.15449 22.9132 5.33795 23.0181 5.53493 23.1132C5.72998 23.2102 5.92696 23.3124 6.10946 23.3951C6.29292 23.4743 6.45321 23.5418 6.56232 23.5845C6.65598 23.6236 6.74481 23.6574 6.82303 23.6903C6.90703 23.7206 6.98235 23.7481 7.05284 23.7739C7.19381 23.8273 7.30775 23.8708 7.40335 23.9073C7.59067 23.9793 7.69206 24.0167 7.72585 24.0113C7.65537 23.9864 7.58681 23.9553 7.47287 23.9055C7.56363 23.9411 7.92959 24.062 8.27914 24.1812C8.62578 24.303 8.96567 24.3973 8.99464 24.4222C8.80442 24.3848 8.46839 24.2532 8.3139 24.231C8.39887 24.2674 8.47998 24.3039 8.58426 24.343C8.62578 24.3448 8.65379 24.3457 8.68855 24.3475C9.72559 24.6631 8.80152 24.4044 10.417 24.8196H10.415C10.5599 24.8588 10.6854 24.8943 10.6999 24.9166C10.7964 24.937 10.8949 24.9592 10.9026 24.977L10.7086 24.9174C10.4227 24.8748 10.9229 25.0019 11.1016 25.0215C11.062 24.9939 10.9432 24.9557 10.7704 24.9086C11.032 24.9415 10.8911 24.929 11.9967 25.1611C12.2506 25.1878 12.7093 25.2571 13.139 25.3309C13.5725 25.3896 13.979 25.4501 14.1277 25.4581C14.3083 25.491 14.5149 25.5088 14.7244 25.5248C14.8838 25.5523 15.0064 25.5968 15.3221 25.6039C15.2488 25.5915 15.1918 25.5817 15.1377 25.5728C15.2314 25.5621 15.8088 25.6084 16.3911 25.6342C16.6807 25.6457 16.9723 25.6564 17.2022 25.6662C17.432 25.6688 17.6009 25.6697 17.6483 25.6679C17.88 25.6608 18.0451 25.6706 18.1504 25.6946C18.3889 25.6822 18.442 25.6537 19.0223 25.6475C19.0484 25.6475 19.2029 25.6448 19.4317 25.6422C19.6605 25.6324 19.9657 25.619 20.2901 25.6057C20.94 25.5675 21.6767 25.5114 22.0765 25.4554C22.0822 25.4492 22.09 25.4439 22.0977 25.4376C22.1064 25.4367 22.3188 25.4136 22.6809 25.3736C23.0401 25.322 23.5538 25.2625 24.1641 25.1611C25.3836 24.9708 26.9923 24.6453 28.5671 24.2043C30.143 23.7686 31.6821 23.2146 32.8157 22.7335C33.1025 22.6188 33.3574 22.4997 33.5863 22.3965C33.8171 22.2934 34.0189 22.2054 34.182 22.1209C34.5094 21.9608 34.7044 21.8639 34.7218 21.855C34.7305 21.8523 34.858 21.7945 35.0675 21.6807C35.277 21.566 35.5802 21.4202 35.9278 21.2183C36.6337 20.8333 37.5365 20.266 38.3901 19.6427C39.2456 19.0193 40.0364 18.324 40.5907 17.7691C40.8591 17.4828 41.0928 17.2533 41.2357 17.0755C41.3844 16.9012 41.4694 16.8025 41.4713 16.8007C41.5775 16.702 41.7069 16.5402 41.8421 16.3695C41.9068 16.2832 41.9734 16.197 42.04 16.1098C42.0989 16.0209 42.153 15.9346 42.2013 15.8573C42.1646 15.9071 42.1298 15.9542 42.0951 16.0004C41.9879 16.1685 41.8566 16.3197 41.7339 16.4771C41.8469 16.3126 41.9705 16.1569 42.097 15.9987C42.1318 15.9453 42.2534 15.7639 42.4398 15.4803C42.5257 15.3327 42.6271 15.1601 42.742 14.9654C42.8521 14.7698 42.9564 14.5421 43.08 14.3021C43.1311 14.1776 43.1862 14.0486 43.2412 13.9152C43.2963 13.7836 43.3542 13.6467 43.3976 13.5018C43.445 13.3568 43.4932 13.2092 43.5415 13.0589C43.5792 12.9042 43.6168 12.7477 43.6555 12.5885C43.7916 11.9492 43.8563 11.2547 43.809 10.5638C43.7539 9.87379 43.5946 9.19443 43.3658 8.58354C43.1379 7.9691 42.8183 7.43824 42.5305 6.99008C41.9261 6.10442 41.3593 5.60825 41.3245 5.546C41.4443 5.66427 41.5621 5.78164 41.6779 5.89724C41.7861 6.02084 41.8932 6.14266 41.9995 6.26537C42.0516 6.32673 42.1086 6.38542 42.1578 6.44944L42.3027 6.64151C42.3963 6.77222 42.5006 6.89493 42.5865 7.03098C42.5499 6.96162 42.5093 6.90471 42.4649 6.8398C42.4948 6.87092 42.5093 6.88693 42.5267 6.9056C42.2254 6.49479 42.209 6.47789 42.1781 6.41921C42.2129 6.461 42.2389 6.49301 42.2959 6.55881C41.8643 6.02084 41.4539 5.56467 40.973 5.14052C41.0175 5.16275 41.059 5.19298 41.1382 5.2579C41.2183 5.32014 41.3293 5.42418 41.5051 5.59757L41.507 5.59135C40.9093 4.98847 40.2131 4.46294 39.5391 3.98366C39.8365 4.19084 40.1484 4.38736 40.4323 4.61855L40.4342 4.61144C39.5469 3.92319 38.5204 3.31942 37.4834 2.83124C36.4473 2.34129 35.4006 1.96515 34.4679 1.68327C33.5351 1.40139 32.7182 1.20665 32.1253 1.08305C31.8279 1.02348 31.5875 0.97457 31.4176 0.94078C31.2438 0.912325 31.1414 0.893652 31.1192 0.890984C30.5379 0.793171 30.4481 0.770051 30.4269 0.765606C30.4047 0.76027 30.45 0.766495 30.1382 0.741597C30.0213 0.71581 29.8417 0.686466 29.6023 0.651787C29.3628 0.617997 29.0625 0.592209 28.7033 0.553973C28.348 0.516627 27.9299 0.497953 27.4596 0.462385C26.9884 0.446379 26.4612 0.413478 25.8818 0.410811C25.3923 0.399251 24.9703 0.406364 24.6063 0.412589C24.2413 0.413478 23.9371 0.432152 23.6803 0.441933C23.1695 0.460607 22.8547 0.487283 22.6558 0.498842C22.2638 0.52463 22.3449 0.506845 22.2956 0.470388C22.6104 0.46772 22.8914 0.466831 23.0102 0.441044L22.8605 0.447268L22.8885 0.440155L23.0015 0.441933C23.2545 0.432152 23.5277 0.407254 23.7807 0.409921C23.7971 0.4117 23.8937 0.401029 23.8927 0.397472C23.8937 0.381467 23.7276 0.38858 23.5528 0.392137C24.9433 0.318333 26.101 0.325447 27.0454 0.369907C27.9907 0.407254 28.7255 0.476612 29.2807 0.534411C30.3931 0.6589 30.7919 0.725591 30.7339 0.691801C30.5601 0.661568 30.3786 0.63667 30.1671 0.608215C30.283 0.620664 30.367 0.630445 30.5012 0.645562C30.2338 0.597545 29.9518 0.559309 29.6756 0.521962C29.4004 0.483726 29.1282 0.460606 28.881 0.417924C28.9698 0.423259 29.021 0.425927 29.1059 0.431262C28.8983 0.405475 28.6936 0.381467 28.4918 0.357458C28.2891 0.342341 28.0882 0.325446 27.8941 0.311219C27.504 0.277429 27.1342 0.265869 26.8001 0.25342C26.467 0.236525 26.1686 0.235636 25.9224 0.232969C25.6762 0.228522 25.4821 0.223187 25.3546 0.214295C25.1538 0.201846 25.0225 0.213406 24.8139 0.224966C24.6073 0.238304 24.3214 0.24275 23.8106 0.252531C23.3858 0.252531 22.5341 0.299659 21.7819 0.369907C21.4073 0.407254 21.0539 0.437487 20.7932 0.471277C20.5315 0.504178 20.3596 0.527297 20.3413 0.529965C19.3458 0.64823 18.3502 0.816291 17.5169 0.973681C17.1017 1.0626 16.7252 1.14441 16.4113 1.2191C16.0985 1.3018 15.8474 1.3756 15.6785 1.43607C15.3675 1.54366 15.1464 1.57657 14.9736 1.65393C15.3984 1.55878 15.4525 1.54633 15.5645 1.51521C15.6756 1.48498 15.8407 1.43251 16.4915 1.27868C16.4615 1.2938 16.449 1.30091 16.4364 1.30713C16.5552 1.28757 16.7522 1.23244 16.7869 1.252C16.6073 1.29113 16.4432 1.32759 16.2704 1.36582C15.8059 1.46808 15.4535 1.57568 15.046 1.67794C14.9832 1.69305 14.6733 1.77219 14.3517 1.85222C14.0302 1.94737 13.6961 2.04874 13.5802 2.1012C13.6198 2.08875 13.9085 2.00694 14.3469 1.8789C14.7901 1.76508 15.3791 1.60057 16.027 1.45652C17.3219 1.15241 18.834 0.897209 19.7252 0.767384C19.873 0.745154 20.0284 0.728259 20.1443 0.728259C19.3728 0.851859 19.4076 0.871422 18.9344 0.942558C18.6988 0.977238 18.3396 1.0466 17.6917 1.16397C17.3702 1.22355 16.9772 1.31069 16.4915 1.41117C16.0106 1.52677 15.4351 1.65393 14.7592 1.84333L14.7602 1.85044C15.3791 1.6895 16.027 1.53033 16.6498 1.40939C16.4229 1.45297 16.2163 1.52499 15.9894 1.56678C15.9198 1.59435 15.636 1.66104 15.3502 1.73662C15.0672 1.81487 14.7795 1.89401 14.6936 1.91713C14.8268 1.88423 14.9214 1.85933 15.0981 1.81576C14.8123 1.9118 14.3189 2.05051 13.9047 2.18479C13.6951 2.24792 13.5049 2.30483 13.3659 2.34662C13.2278 2.39197 13.1428 2.42043 13.1428 2.42043C13.1573 2.41954 13.1689 2.41954 13.1901 2.41865C12.9632 2.49156 12.7402 2.56537 12.519 2.6365C12.2941 2.70942 12.0749 2.79389 11.8441 2.87481C11.9358 2.85525 11.8151 2.89438 12.3423 2.71742C12.3105 2.7361 12.2834 2.75032 12.2738 2.75655C12.2458 2.76633 11.8798 2.89971 11.5148 3.0322C11.1556 3.17359 10.7993 3.31942 10.78 3.32831C10.8447 3.30608 10.9007 3.28741 10.9577 3.26784C10.9142 3.29007 10.724 3.36388 10.4701 3.47147C10.2161 3.58262 9.8936 3.72312 9.57303 3.86361C9.25921 4.01389 8.9425 4.15794 8.704 4.27532C8.4655 4.39536 8.29845 4.48073 8.27141 4.49406C8.24341 4.51718 8.2183 4.53853 8.19223 4.55987C8.02326 4.64167 7.86586 4.71815 7.74034 4.80707C7.85138 4.74927 7.95856 4.69236 8.11981 4.61678C8.05415 4.65501 7.91511 4.73059 7.72682 4.84086C7.53563 4.9529 7.28554 5.0845 7.01035 5.25523C6.73516 5.42685 6.41748 5.60825 6.09883 5.82521C5.93758 5.93281 5.7686 6.03862 5.60542 6.15333C5.4403 6.27071 5.27519 6.38808 5.10911 6.50724C4.4554 6.99008 3.81908 7.50315 3.3498 7.95576C3.10454 8.17451 2.90949 8.38169 2.7492 8.54264C2.67196 8.62356 2.60243 8.69292 2.54739 8.75071C2.49429 8.81118 2.45277 8.85742 2.42477 8.89032C2.57347 8.7276 2.69127 8.62356 2.80328 8.51418C2.73279 8.59066 2.6594 8.66713 2.58795 8.74271C2.5165 8.82185 2.4489 8.90277 2.38518 8.98102C2.25482 9.13752 2.13123 9.28246 2.0617 9.41318C2.15826 9.28958 2.24999 9.19532 2.34172 9.08861C2.31179 9.11085 2.29345 9.12596 2.27896 9.13752C2.42863 8.94901 2.46822 8.95345 2.6034 8.79695C2.73569 8.65913 2.87763 8.51241 3.0495 8.35146C2.40642 9.00236 1.6745 9.88624 1.18978 10.6687C1.07294 10.867 0.950309 11.0458 0.863406 11.2201C0.772641 11.3943 0.690566 11.5491 0.622974 11.678C0.504207 11.9474 0.429856 12.1164 0.422132 12.1315L0.423097 12.1466C0.53414 11.9065 0.798712 11.2894 1.18495 10.7034C1.27185 10.5505 1.3742 10.4073 1.47366 10.2659C1.57505 10.1263 1.66388 9.98316 1.7672 9.86045C1.96611 9.61325 2.12929 9.39095 2.26158 9.25579L2.26351 9.26557C2.1853 9.35271 2.11191 9.44341 2.04143 9.53678C2.07232 9.50032 2.1206 9.44341 2.1824 9.36872C2.24903 9.29669 2.32917 9.20777 2.42187 9.10818C2.51456 9.00947 2.61112 8.89477 2.72217 8.78184C2.83611 8.67157 2.95294 8.55331 3.07074 8.43682C3.30538 8.1994 3.56416 7.98244 3.76694 7.79304C3.97936 7.6143 4.14931 7.47292 4.22945 7.40712L4.23042 7.41334L3.86446 7.72457C3.74086 7.8286 3.62789 7.94153 3.51105 8.04913C3.67617 7.90241 3.84322 7.7468 4.01992 7.60274C4.19566 7.46047 4.3627 7.3093 4.54037 7.18659C4.54037 7.18659 4.50658 7.21327 4.44092 7.26307C4.37912 7.31553 4.29029 7.39022 4.17924 7.48359C4.07013 7.57785 3.93688 7.68633 3.79494 7.81349C3.65493 7.9442 3.50043 8.08647 3.34111 8.23586C3.68969 7.92464 3.87798 7.72546 3.85673 7.78325C4.01413 7.6472 4.27773 7.41334 4.54617 7.20171C4.82136 6.99363 5.0811 6.78467 5.22401 6.69041C4.98744 6.86381 4.76439 7.05143 4.53168 7.22928C4.3096 7.41245 4.08655 7.59474 3.8606 7.7797C3.61341 8.01534 3.22234 8.37725 2.91432 8.70892C2.7521 8.86809 2.61692 9.02548 2.51553 9.14197C2.41318 9.25756 2.34559 9.33493 2.33303 9.34737L2.31662 9.35449C2.47787 9.15175 2.53098 9.09128 2.61306 9.00058C2.69127 8.90899 2.80714 8.79429 3.10164 8.48573C2.83224 8.74716 2.67099 8.90899 2.56864 9.03259C2.46435 9.15175 2.40449 9.22466 2.33883 9.30647C2.27124 9.38739 2.20075 9.48076 2.07715 9.64793C2.01439 9.73063 1.93618 9.83199 1.84058 9.95826C1.74402 10.0845 1.63877 10.2446 1.50359 10.4358C0.919411 11.3499 1.00728 11.2245 0.718568 11.8327C0.777469 11.7002 0.855682 11.5713 0.931963 11.4175C0.972518 11.3419 1.015 11.2601 1.06232 11.1729C1.11253 11.0867 1.16853 10.996 1.23033 10.8964L1.23516 10.9008C1.06715 11.1631 0.936791 11.4424 0.793884 11.7171C0.727258 11.8549 0.67222 11.9999 0.611387 12.1404L0.521587 12.3529L0.449168 12.5699L0.452065 12.5708C0.504207 12.4071 0.572764 12.248 0.643252 12.0897C0.71374 11.9314 0.776503 11.7696 0.863406 11.6166C0.757191 11.8256 0.50131 12.4329 0.329435 13.0074C0.261844 13.2972 0.178803 13.5702 0.155629 13.7774C0.122799 13.9855 0.10059 14.118 0.10059 14.118C0.137283 13.9642 0.156594 13.7668 0.201977 13.604C0.153698 13.9197 0.10735 14.1251 0.0976935 14.2905C0.0861064 14.4532 0.0774162 14.5742 0.0716226 14.7164C0.0638978 14.8516 0.0783816 14.9779 0.0764505 15.1041C0.0812784 15.2295 0.0716225 15.3549 0.0861064 15.4829C0.0793472 15.442 0.0725883 15.4029 0.0716226 15.3629H0.0696914C0.0880377 15.5825 0.120868 15.8004 0.146939 16.02C0.110246 15.5576 0.054242 14.9378 0.140179 14.2718C0.218392 13.6058 0.406682 12.9015 0.663529 12.2764C0.636493 12.3565 0.592076 12.5041 0.535106 12.6801C0.506138 12.7699 0.474274 12.8642 0.442409 12.9638C0.41151 13.0634 0.388336 13.1683 0.360334 13.2688C0.334263 13.3728 0.306261 13.4733 0.282121 13.5685C0.259913 13.6645 0.246394 13.757 0.229979 13.8379C0.200046 13.9971 0.175906 14.1171 0.168182 14.1616C0.183631 14.1189 0.189425 14.1038 0.201012 14.0762C0.19039 14.0886 0.164319 14.4034 0.144042 14.7271C0.139214 15.0508 0.151767 15.3824 0.156594 15.4233C0.160457 15.4554 0.170113 15.4634 0.175906 15.4963C0.184597 15.5514 0.193287 15.6119 0.206805 15.6954C0.207771 15.5843 0.204874 15.4927 0.19908 15.4109C0.19908 15.33 0.198115 15.258 0.195218 15.1877C0.194253 15.0454 0.174941 14.9067 0.202943 14.7049C0.195218 14.8463 0.219358 15.1521 0.220323 15.1788C0.220323 15.1148 0.218392 15.0534 0.219358 14.9618C0.227083 15.0303 0.232876 15.0757 0.242532 15.1539C0.244463 15.0597 0.224186 14.7885 0.244463 14.7102C0.28888 14.4283 0.291777 14.2016 0.33716 13.9766C0.355506 13.8628 0.372887 13.749 0.395095 13.6254C0.424063 13.5044 0.462686 13.3773 0.508069 13.235C0.481032 13.3613 0.453031 13.4866 0.422132 13.6085C0.401854 13.7321 0.381577 13.8539 0.363231 13.9748C0.31302 14.2149 0.309158 14.4523 0.299502 14.6826C0.309158 14.5528 0.319779 14.4239 0.330401 14.2949C0.335229 14.1669 0.369024 14.0415 0.388336 13.9144C0.413442 13.7899 0.425994 13.6627 0.461721 13.5418L0.563108 13.1772L0.567936 13.1861L0.454962 13.636L0.37868 14.0913L0.382542 14.094L0.445306 13.7472L0.450134 13.7561L0.428891 13.8841C0.465583 13.6458 0.527381 13.4386 0.57566 13.2519C0.618146 13.0652 0.678013 12.9051 0.728224 12.7628C0.818989 12.4738 0.922307 12.2684 1.01211 12.1039C0.745604 12.657 0.600766 13.1932 0.495517 13.7347C0.586282 13.3399 0.674151 13.0198 0.780366 12.7486C0.868234 12.4738 0.980243 12.2489 1.07197 12.031C1.1666 11.8132 1.28344 11.6193 1.39255 11.3997C1.44855 11.2912 1.52194 11.1845 1.5905 11.0671C1.66485 10.9515 1.73244 10.8226 1.82706 10.6954L1.83769 10.6919C1.78748 10.7683 1.74596 10.8501 1.7054 10.9319L1.71892 10.9204C2.02018 10.4393 2.0617 10.4029 2.07232 10.3833C2.08005 10.3744 2.08295 10.3726 2.11578 10.3273C2.14861 10.2793 2.2162 10.1912 2.35717 10.0152C2.46532 9.87912 2.55512 9.76619 2.64589 9.6666C2.73858 9.5679 2.82452 9.47542 2.91239 9.37138C3.20786 9.01926 3.14606 9.14552 3.36622 8.91611C3.66265 8.60844 3.7959 8.49996 3.84998 8.4466C3.90501 8.39681 3.88956 8.41104 3.92819 8.37902C3.89632 8.41637 3.86639 8.44927 3.83163 8.48662C3.59313 8.68758 3.54195 8.74983 3.49271 8.80318C3.44636 8.85831 3.40387 8.91077 3.20689 9.11084C3.22717 9.09662 3.24648 9.08239 3.27642 9.06283C3.13544 9.20154 3.03309 9.32514 2.92494 9.44697C2.79652 9.59191 2.94811 9.39539 2.70382 9.67638C2.27124 10.217 2.42477 10.0054 2.26931 10.2144C2.31083 10.1699 2.3369 10.1432 2.37938 10.0952C2.25192 10.2553 2.16888 10.3815 2.10612 10.4776C2.04239 10.5736 1.99991 10.6358 1.97094 10.6803C1.913 10.7674 1.91204 10.7701 1.91204 10.7737C1.913 10.7763 1.90914 10.7754 1.85603 10.859C1.80679 10.9435 1.69961 11.108 1.50359 11.4432C1.47462 11.5019 1.44566 11.5597 1.41669 11.6166C1.44083 11.5846 1.5538 11.3623 1.68899 11.1516C1.75368 11.0458 1.81837 10.94 1.86859 10.8573C1.92169 10.7772 1.96514 10.7212 1.97383 10.7105C2.0984 10.5816 2.23261 10.3211 2.48173 10.0632C2.40063 10.1717 2.35621 10.2312 2.31179 10.2908L2.31758 10.2926L2.49815 10.0712L2.49912 10.0756C2.44794 10.1459 2.39483 10.2179 2.30407 10.3371C2.9597 9.47453 3.78528 8.65735 4.56065 8.01178C5.33698 7.36444 6.05249 6.87448 6.47059 6.61127V6.61928L6.24947 6.76955C6.6975 6.48767 6.98428 6.29561 7.20733 6.16934C7.42556 6.03862 7.56653 5.95326 7.71813 5.88479L6.95821 6.34273C7.09146 6.26626 7.20347 6.20224 7.39659 6.09286C7.58584 5.97905 7.8649 5.82699 8.32935 5.58157L8.32838 5.5869L7.89869 5.83855C7.91318 5.83055 8.12368 5.71673 8.43363 5.54956C8.59006 5.46597 8.77642 5.37527 8.97243 5.27746C9.16651 5.17787 9.37798 5.07383 9.59234 4.9778C9.80573 4.88176 10.0153 4.7795 10.2171 4.69325C10.4208 4.60699 10.6091 4.52697 10.7713 4.45761C10.9316 4.38825 11.0687 4.33223 11.1663 4.29577C11.2638 4.2602 11.3198 4.23708 11.3227 4.23708L11.3217 4.24064C11.1556 4.31 10.9905 4.37847 10.8293 4.45494L10.8341 4.45583C10.9297 4.41492 11.0224 4.37402 11.1199 4.33756L11.1218 4.34557C10.3851 4.65857 10.5077 4.57409 10.2151 4.72259C10.3445 4.66924 10.4353 4.631 10.5251 4.59188C10.1553 4.77328 10.1533 4.74304 9.97471 4.82752C9.7787 4.91733 9.58268 5.00981 9.34032 5.12274C9.48419 5.08005 9.27563 5.16898 9.22831 5.20721C9.76325 4.95023 10.8051 4.46917 11.8991 4.06724C12.9902 3.65999 14.1219 3.3292 14.737 3.15402L14.738 3.16025L14.4898 3.24206C14.8017 3.15314 15.1281 3.0651 15.4342 2.99663L15.1773 3.06955C15.213 3.06333 15.6041 2.94417 16.0232 2.84369C16.4432 2.74232 16.8806 2.6365 16.9984 2.62761C16.9154 2.64895 16.8565 2.66051 16.7474 2.69164C17.0071 2.63739 17.2524 2.59382 17.4909 2.54936C17.7274 2.50312 17.9572 2.46133 18.189 2.43021C18.329 2.38664 18.3667 2.40086 18.4429 2.39464C18.4729 2.38753 18.5057 2.37952 18.5385 2.36974C18.7065 2.37419 18.5009 2.36263 20.6657 2.09142C20.7739 2.11009 21.1147 2.06563 21.5357 2.02295C21.7462 1.99983 21.977 1.97493 22.2058 1.94914C22.4385 1.92958 22.6703 1.91358 22.8827 1.90113C22.9049 1.90024 23.1946 1.86734 23.69 1.846C24.1853 1.81576 24.8892 1.7882 25.738 1.78998C27.4345 1.78909 29.7297 1.92514 32.0558 2.40531C33.2174 2.64362 34.3829 2.96551 35.4711 3.37099C36.5593 3.77292 37.5693 4.25842 38.4277 4.78661C39.2871 5.31392 39.9901 5.8839 40.5096 6.41387C40.639 6.54725 40.7664 6.67174 40.8688 6.80068C40.9721 6.92783 41.0783 7.04343 41.1652 7.16081C41.3303 7.39556 41.4819 7.59296 41.5727 7.76903C41.4587 7.58051 41.3149 7.40089 41.0831 7.08967C41.1063 7.11279 41.2299 7.3013 41.3767 7.4996C41.5186 7.69967 41.6461 7.92997 41.7136 8.01978C41.9338 8.3808 41.9396 8.47417 41.9879 8.51241L41.9908 8.5133C41.9493 8.43416 41.9097 8.35235 41.8488 8.23319C42.126 8.64134 42.3345 9.35538 42.4919 10.1165C42.4108 9.64259 42.4108 9.56968 42.3828 9.48342C42.3683 9.43896 42.3529 9.38917 42.3191 9.28157C42.3017 9.22733 42.2795 9.15797 42.2524 9.06816C42.2196 8.97924 42.1694 8.87343 42.1153 8.73738C42.1617 8.83786 42.2051 8.93478 42.2496 9.0317C42.2843 9.13308 42.3171 9.23533 42.349 9.3367C42.4224 9.53767 42.4543 9.7493 42.4977 9.95737C42.489 9.96004 42.4842 9.96271 42.4726 9.96627C42.5025 10.0436 42.5209 10.0899 42.5315 10.1397C42.5373 10.2535 42.5643 10.3851 42.5682 10.5265C42.5518 10.4029 42.5383 10.3113 42.5257 10.2375C42.5199 10.3282 42.5074 10.2704 42.5122 10.346C42.517 10.3851 42.5257 10.4553 42.5412 10.5958C42.5479 10.6661 42.545 10.755 42.5489 10.8661C42.5508 10.9204 42.5527 10.9817 42.5547 11.0475C42.5547 11.0813 42.5556 11.1169 42.5566 11.1534C42.5537 11.1889 42.5508 11.2272 42.5489 11.2672C42.5489 11.2672 42.5431 11.3686 42.5305 11.5179C42.5296 11.67 42.49 11.8692 42.4601 12.0692C42.4523 12.119 42.4436 12.1688 42.4378 12.2177C42.4243 12.2667 42.4127 12.3147 42.4011 12.3618C42.378 12.4534 42.3577 12.5405 42.3384 12.6152C42.3065 12.7637 42.2679 12.8606 42.2679 12.8606C42.2476 12.978 42.2013 13.1274 42.1211 13.3408C42.0265 13.5525 41.9193 13.8317 41.7378 14.1998C41.7001 14.278 41.6692 14.3696 41.6258 14.4319C41.2984 14.9681 41.0793 15.2997 41.0271 15.3362C41.1198 15.2037 41.2038 15.0792 41.2888 14.9565C40.8948 15.5532 40.4188 16.1454 39.7709 16.815C39.1191 17.4783 38.2877 18.2279 37.0923 19.0451C36.4975 19.4577 35.8052 19.8792 35.0086 20.3193C34.2062 20.7506 33.2889 21.1917 32.2354 21.6247C30.1314 22.4855 27.4644 23.3186 24.0849 23.8344C24.0656 23.8451 24.0559 23.8513 24.0395 23.8602C23.8039 23.8735 23.577 23.9171 23.353 23.9527C23.3645 23.958 23.3742 23.9624 23.3819 23.9669C23.2921 23.966 22.5795 24.0611 21.8534 24.1198C21.4913 24.1554 21.1244 24.1767 20.8328 24.1963C20.5412 24.2168 20.3258 24.2319 20.2602 24.2363C20.4253 24.2363 20.5257 24.2283 20.6377 24.2256C20.5779 24.2354 20.5344 24.2416 20.4881 24.2479C20.5431 24.2488 20.5817 24.2479 20.6599 24.2479C20.5006 24.2594 20.3847 24.2701 20.2573 24.2737C20.2689 24.2657 20.2766 24.2612 20.2843 24.2559C20.1279 24.255 19.9898 24.2665 19.8546 24.2772C19.8469 24.2941 19.8788 24.2994 19.7117 24.3083C19.6287 24.3119 19.4945 24.3199 19.2791 24.3252C19.0657 24.3279 18.7732 24.3323 18.3705 24.3368C19.059 24.3404 19.4027 24.3181 19.4983 24.335C19.8498 24.3021 20.1936 24.3003 20.5373 24.2817C20.4774 24.2879 20.4156 24.2986 20.3307 24.3057C20.5836 24.3074 20.8173 24.2745 21.0404 24.2621C21.2769 24.2505 21.5145 24.2363 21.7781 24.2123C21.7916 24.2132 21.8186 24.2159 21.8437 24.2212C21.7086 24.2514 20.2264 24.3955 18.7413 24.4266C17.2582 24.4657 15.7789 24.3724 15.6524 24.3617C15.7161 24.367 15.7789 24.3724 15.8716 24.3821Z" fill="#FF6A1A"/>
</g>
</g>
</g>
<path d="M54.736 22.16C53.8827 22.16 53.1627 22.0107 52.576 21.712C52 21.4133 51.5573 20.992 51.248 20.448C50.9493 19.904 50.7787 19.2693 50.736 18.544C50.7253 18.352 50.72 18.1173 50.72 17.84C50.72 17.5627 50.7253 17.328 50.736 17.136C50.7787 16.4 50.9547 15.7653 51.264 15.232C51.584 14.688 52.032 14.2667 52.608 13.968C53.1947 13.6693 53.904 13.52 54.736 13.52C55.568 13.52 56.272 13.6693 56.848 13.968C57.4347 14.2667 57.8827 14.688 58.192 15.232C58.512 15.7653 58.6933 16.4 58.736 17.136C58.7467 17.328 58.752 17.5627 58.752 17.84C58.752 18.1173 58.7467 18.352 58.736 18.544C58.6933 19.2693 58.5173 19.904 58.208 20.448C57.9093 20.992 57.4667 21.4133 56.88 21.712C56.304 22.0107 55.5893 22.16 54.736 22.16ZM54.736 20.576C55.3013 20.576 55.7387 20.4 56.048 20.048C56.3573 19.6853 56.528 19.1573 56.56 18.464C56.5707 18.304 56.576 18.096 56.576 17.84C56.576 17.584 56.5707 17.376 56.56 17.216C56.528 16.5333 56.3573 16.0107 56.048 15.648C55.7387 15.2853 55.3013 15.104 54.736 15.104C54.1707 15.104 53.7333 15.2853 53.424 15.648C53.1147 16.0107 52.944 16.5333 52.912 17.216C52.9013 17.376 52.896 17.584 52.896 17.84C52.896 18.096 52.9013 18.304 52.912 18.464C52.944 19.1573 53.1147 19.6853 53.424 20.048C53.7333 20.4 54.1707 20.576 54.736 20.576ZM61.391 22C61.2843 22 61.1937 21.9627 61.119 21.888C61.0443 21.8133 61.007 21.7227 61.007 21.616V15.376H59.711C59.6043 15.376 59.5137 15.3387 59.439 15.264C59.3643 15.1893 59.327 15.0987 59.327 14.992V14.064C59.327 13.9573 59.3643 13.8667 59.439 13.792C59.5137 13.7173 59.6043 13.68 59.711 13.68H61.007V13.024C61.007 12.384 61.1243 11.856 61.359 11.44C61.5937 11.0133 61.9403 10.6933 62.399 10.48C62.8577 10.2667 63.439 10.16 64.143 10.16H65.231C65.3483 10.16 65.439 10.1973 65.503 10.272C65.5777 10.3467 65.615 10.4373 65.615 10.544V11.472C65.615 11.5787 65.5777 11.6693 65.503 11.744C65.439 11.8187 65.3483 11.856 65.231 11.856H64.207C63.7803 11.856 63.487 11.9627 63.327 12.176C63.167 12.3893 63.087 12.6987 63.087 13.104V13.68H66.367V13.024C66.367 12.384 66.479 11.856 66.703 11.44C66.9377 11.0133 67.2843 10.6933 67.743 10.48C68.2123 10.2667 68.7937 10.16 69.487 10.16H70.591C70.6977 10.16 70.7883 10.1973 70.863 10.272C70.9377 10.3467 70.975 10.4373 70.975 10.544V11.472C70.975 11.5787 70.9377 11.6693 70.863 11.744C70.7883 11.8187 70.6977 11.856 70.591 11.856H69.567C69.1403 11.856 68.8417 11.9627 68.671 12.176C68.511 12.3893 68.431 12.6987 68.431 13.104V13.68H70.431C70.5377 13.68 70.6283 13.7173 70.703 13.792C70.7777 13.8667 70.815 13.9573 70.815 14.064V14.992C70.815 15.0987 70.7777 15.1893 70.703 15.264C70.6283 15.3387 70.5377 15.376 70.431 15.376H68.431V21.616C68.431 21.7227 68.3937 21.8133 68.319 21.888C68.255 21.9627 68.1643 22 68.047 22H66.751C66.6443 22 66.5537 21.9627 66.479 21.888C66.4043 21.8133 66.367 21.7227 66.367 21.616V15.376H63.087V21.616C63.087 21.7227 63.0497 21.8133 62.975 21.888C62.9003 21.9627 62.8097 22 62.703 22H61.391Z" fill="#212337"/>
<path d="M3.48 22C3.336 22 3.216 21.952 3.12 21.856C3.024 21.744 2.976 21.616 2.976 21.472C2.976 21.408 2.992 21.336 3.024 21.256L8.808 8.056H1.272C1.096 8.056 0.952 8 0.84 7.888C0.744 7.776 0.696 7.64 0.696 7.48V5.8C0.696 5.624 0.744 5.48 0.84 5.368C0.952 5.256 1.096 5.2 1.272 5.2H11.808C11.984 5.2 12.12 5.256 12.216 5.368C12.328 5.48 12.384 5.624 12.384 5.8V7.288C12.384 7.512 12.36 7.704 12.312 7.864C12.28 8.008 12.232 8.16 12.168 8.32L6.432 21.424C6.384 21.536 6.296 21.664 6.168 21.808C6.056 21.936 5.888 22 5.664 22H3.48ZM20.4233 22.24C19.2873 22.24 18.3193 22.072 17.5193 21.736C16.7193 21.4 16.0633 20.936 15.5513 20.344C15.0393 19.752 14.6553 19.072 14.3993 18.304C14.1433 17.52 13.9913 16.688 13.9433 15.808C13.9273 15.376 13.9113 14.904 13.8953 14.392C13.8953 13.864 13.8953 13.336 13.8953 12.808C13.9113 12.28 13.9273 11.792 13.9433 11.344C13.9753 10.464 14.1273 9.64 14.3993 8.872C14.6713 8.088 15.0633 7.408 15.5753 6.832C16.1033 6.256 16.7673 5.8 17.5673 5.464C18.3673 5.128 19.3193 4.96 20.4233 4.96C21.5433 4.96 22.5033 5.128 23.3033 5.464C24.1033 5.8 24.7593 6.256 25.2713 6.832C25.7993 7.408 26.1913 8.088 26.4473 8.872C26.7193 9.64 26.8713 10.464 26.9033 11.344C26.9353 11.792 26.9513 12.28 26.9513 12.808C26.9513 13.336 26.9513 13.864 26.9513 14.392C26.9513 14.904 26.9353 15.376 26.9033 15.808C26.8713 16.688 26.7273 17.52 26.4713 18.304C26.2153 19.072 25.8313 19.752 25.3193 20.344C24.8073 20.936 24.1433 21.4 23.3273 21.736C22.5273 22.072 21.5593 22.24 20.4233 22.24ZM20.4233 19.48C21.4633 19.48 22.2233 19.144 22.7033 18.472C23.1993 17.784 23.4553 16.856 23.4713 15.688C23.5033 15.224 23.5193 14.76 23.5193 14.296C23.5193 13.816 23.5193 13.336 23.5193 12.856C23.5193 12.376 23.5033 11.92 23.4713 11.488C23.4553 10.352 23.1993 9.44 22.7033 8.752C22.2233 8.048 21.4633 7.696 20.4233 7.696C19.3993 7.696 18.6393 8.048 18.1433 8.752C17.6633 9.44 17.4073 10.352 17.3753 11.488C17.3753 11.92 17.3673 12.376 17.3513 12.856C17.3513 13.336 17.3513 13.816 17.3513 14.296C17.3673 14.76 17.3753 15.224 17.3753 15.688C17.4073 16.856 17.6713 17.784 18.1673 18.472C18.6633 19.144 19.4153 19.48 20.4233 19.48ZM30.4847 22C30.1487 22 29.9807 21.84 29.9807 21.52C29.9807 21.424 30.0127 21.336 30.0767 21.256L41.9087 5.656C42.0207 5.512 42.1327 5.4 42.2447 5.32C42.3567 5.24 42.5167 5.2 42.7247 5.2H43.9967C44.3327 5.2 44.5007 5.36 44.5007 5.68C44.5007 5.776 44.4687 5.864 44.4047 5.944L32.5727 21.544C32.4607 21.688 32.3487 21.8 32.2367 21.88C32.1407 21.96 31.9807 22 31.7567 22H30.4847ZM42.0287 22.144C40.9567 22.144 40.1087 21.848 39.4847 21.256C38.8607 20.664 38.5167 19.888 38.4527 18.928C38.4367 18.512 38.4287 18.152 38.4287 17.848C38.4287 17.544 38.4367 17.168 38.4527 16.72C38.5167 15.76 38.8447 14.984 39.4367 14.392C40.0447 13.8 40.9087 13.504 42.0287 13.504C43.1647 13.504 44.0287 13.8 44.6207 14.392C45.2287 14.984 45.5567 15.76 45.6047 16.72C45.6367 17.168 45.6527 17.544 45.6527 17.848C45.6527 18.152 45.6367 18.512 45.6047 18.928C45.5567 19.888 45.2127 20.664 44.5727 21.256C43.9487 21.848 43.1007 22.144 42.0287 22.144ZM42.0287 20.272C42.3807 20.272 42.6527 20.2 42.8447 20.056C43.0527 19.912 43.2047 19.728 43.3007 19.504C43.3967 19.28 43.4447 19.056 43.4447 18.832C43.4767 18.432 43.4927 18.096 43.4927 17.824C43.4927 17.536 43.4767 17.208 43.4447 16.84C43.4287 16.472 43.3167 16.136 43.1087 15.832C42.9007 15.512 42.5407 15.352 42.0287 15.352C41.5327 15.352 41.1807 15.512 40.9727 15.832C40.7647 16.136 40.6447 16.472 40.6127 16.84C40.5967 17.208 40.5887 17.536 40.5887 17.824C40.5887 18.096 40.5967 18.432 40.6127 18.832C40.6447 19.056 40.7007 19.28 40.7807 19.504C40.8767 19.728 41.0207 19.912 41.2127 20.056C41.4207 20.2 41.6927 20.272 42.0287 20.272ZM32.4527 13.648C31.3807 13.648 30.5327 13.368 29.9087 12.808C29.2847 12.248 28.9407 11.488 28.8767 10.528C28.8607 10.112 28.8527 9.752 28.8527 9.448C28.8527 9.128 28.8607 8.744 28.8767 8.296C28.9407 7.336 29.2687 6.56 29.8607 5.968C30.4687 5.376 31.3327 5.08 32.4527 5.08C33.5887 5.08 34.4527 5.376 35.0447 5.968C35.6527 6.56 35.9807 7.336 36.0287 8.296C36.0607 8.744 36.0767 9.128 36.0767 9.448C36.0767 9.752 36.0607 10.112 36.0287 10.528C35.9807 11.488 35.6367 12.248 34.9967 12.808C34.3727 13.368 33.5247 13.648 32.4527 13.648ZM32.4527 11.872C32.8047 11.872 33.0767 11.8 33.2687 11.656C33.4767 11.512 33.6287 11.328 33.7247 11.104C33.8207 10.88 33.8687 10.648 33.8687 10.408C33.9007 10.008 33.9167 9.672 33.9167 9.4C33.9167 9.112 33.9007 8.784 33.8687 8.416C33.8527 8.048 33.7407 7.712 33.5327 7.408C33.3247 7.104 32.9647 6.952 32.4527 6.952C31.9567 6.952 31.6047 7.104 31.3967 7.408C31.1887 7.712 31.0767 8.048 31.0607 8.416C31.0447 8.784 31.0367 9.112 31.0367 9.4C31.0367 9.672 31.0447 10.008 31.0607 10.408C31.0767 10.648 31.1247 10.88 31.2047 11.104C31.3007 11.328 31.4447 11.512 31.6367 11.656C31.8447 11.8 32.1167 11.872 32.4527 11.872Z" fill="#212337"/>
</svg>
