<svg width="20" height="20" viewBox="0 0 20 20" fill="none" xmlns="http://www.w3.org/2000/svg">
<path d="M10.0018 9.7915C10.4033 9.7915 10.7464 9.64853 11.0312 9.36257C11.3159 9.07662 11.4583 8.73287 11.4583 8.33132C11.4583 7.92978 11.3153 7.58664 11.0293 7.30192C10.7434 7.0172 10.3996 6.87484 9.99806 6.87484C9.59652 6.87484 9.25339 7.01782 8.96867 7.30378C8.68395 7.58972 8.54158 7.93347 8.54158 8.33503C8.54158 8.73657 8.68456 9.0797 8.97052 9.36442C9.25647 9.64914 9.60022 9.7915 10.0018 9.7915ZM9.99992 16.6873C11.8471 15.0068 13.2117 13.4825 14.0937 12.1144C14.9756 10.7464 15.4166 9.5415 15.4166 8.49984C15.4166 6.86387 14.8937 5.52432 13.848 4.48119C12.8023 3.43807 11.5196 2.9165 9.99992 2.9165C8.48024 2.9165 7.19754 3.43807 6.15183 4.48119C5.10611 5.52432 4.58325 6.86387 4.58325 8.49984C4.58325 9.5415 5.03464 10.7464 5.93742 12.1144C6.8402 13.4825 8.19436 15.0068 9.99992 16.6873ZM10.0103 18.0832C9.92006 18.0832 9.83325 18.0693 9.74992 18.0415C9.66658 18.0137 9.5902 17.9721 9.52075 17.9165C7.45131 16.0971 5.9027 14.4103 4.87492 12.8562C3.84714 11.3021 3.33325 9.84999 3.33325 8.49984C3.33325 6.4165 4.00339 4.75678 5.34367 3.52067C6.68395 2.28456 8.23603 1.6665 9.99992 1.6665C11.7638 1.6665 13.3159 2.28456 14.6562 3.52067C15.9964 4.75678 16.6666 6.4165 16.6666 8.49984C16.6666 9.84706 16.1527 11.2984 15.1249 12.854C14.0971 14.4096 12.5485 16.0971 10.4791 17.9165C10.4096 17.9721 10.3367 18.0137 10.2603 18.0415C10.1839 18.0693 10.1006 18.0832 10.0103 18.0832Z" fill="#749B3F"/>
</svg>
