<svg width="20" height="20" viewBox="0 0 20 20" fill="none" xmlns="http://www.w3.org/2000/svg">
<path d="M2.91675 16.6668C2.58341 16.6668 2.29175 16.5418 2.04175 16.2918C1.79175 16.0418 1.66675 15.7502 1.66675 15.4168V4.5835C1.66675 4.25016 1.79175 3.9585 2.04175 3.7085C2.29175 3.4585 2.58341 3.3335 2.91675 3.3335H17.0834C17.4167 3.3335 17.7084 3.4585 17.9584 3.7085C18.2084 3.9585 18.3334 4.25016 18.3334 4.5835V15.4168C18.3334 15.7502 18.2084 16.0418 17.9584 16.2918C17.7084 16.5418 17.4167 16.6668 17.0834 16.6668H2.91675ZM17.0834 5.72933L10.3334 10.146C10.2779 10.1738 10.2258 10.1981 10.1772 10.2189C10.1286 10.2397 10.0695 10.2502 10.0001 10.2502C9.93064 10.2502 9.87161 10.2397 9.823 10.2189C9.77439 10.1981 9.7223 10.1738 9.66675 10.146L2.91675 5.72933V15.4168H17.0834V5.72933ZM10.0001 9.12516L17.0001 4.5835H3.02091L10.0001 9.12516ZM2.91675 5.87516V5.05606V5.07131V4.5835V5.06266V5.04366V5.87516Z" fill="#749B3F"/>
</svg>
